<svg xmlns="http://www.w3.org/2000/svg" aria-hidden="true" style="display:none">
  <!-- Editorial Instrument house icons: 24px grid, 1.75px stroke, round caps/joins. -->
<symbol fill="none" stroke="currentColor" stroke-width="1.75" stroke-linecap="round" stroke-linejoin="round" id="i-screens" viewBox="0 0 24 24"><rect x="3" y="4" width="18" height="13" rx="1.5"/><path d="M8 21h8M12 17v4"/></symbol>
  <symbol fill="none" stroke="currentColor" stroke-width="1.75" stroke-linecap="round" stroke-linejoin="round" id="i-components" viewBox="0 0 24 24"><rect x="3" y="3" width="7" height="7" rx="1"/><rect x="14" y="3" width="7" height="7" rx="1"/><rect x="3" y="14" width="7" height="7" rx="1"/><path d="M17.5 14v7M14 17.5h7"/></symbol>
  <symbol fill="none" stroke="currentColor" stroke-width="1.75" stroke-linecap="round" stroke-linejoin="round" id="i-tokens" viewBox="0 0 24 24"><circle cx="8" cy="8" r="4"/><circle cx="16" cy="8" r="4"/><circle cx="12" cy="16" r="4"/></symbol>
  <symbol fill="none" stroke="currentColor" stroke-width="1.75" stroke-linecap="round" stroke-linejoin="round" id="i-decisions" viewBox="0 0 24 24"><path d="M5 4h14v16H5z"/><path d="m8 9 2 2 5-5M8 15h8"/></symbol>
  <symbol fill="none" stroke="currentColor" stroke-width="1.75" stroke-linecap="round" stroke-linejoin="round" id="i-monitor" viewBox="0 0 24 24"><path d="M4 18V5h16v13zM7 14l3-3 3 2 4-5"/></symbol>
  <symbol fill="none" stroke="currentColor" stroke-width="1.75" stroke-linecap="round" stroke-linejoin="round" id="i-operate" viewBox="0 0 24 24"><path d="M5 4h14v16H5zM8 8h8M8 12h5M8 16h7"/><path d="m17 12 2 2-2 2"/></symbol>
  <symbol fill="none" stroke="currentColor" stroke-width="1.75" stroke-linecap="round" stroke-linejoin="round" id="i-configure" viewBox="0 0 24 24"><path d="M4 7h10M18 7h2M4 17h2M10 17h10M4 12h4M12 12h8"/><circle cx="16" cy="7" r="2"/><circle cx="8" cy="17" r="2"/><circle cx="10" cy="12" r="2"/></symbol>
  <symbol fill="none" stroke="currentColor" stroke-width="1.75" stroke-linecap="round" stroke-linejoin="round" id="i-explore" viewBox="0 0 24 24"><circle cx="10.5" cy="10.5" r="6.5"/><path d="m16 16 5 5M8 10.5h5M10.5 8v5"/></symbol>
  <symbol fill="none" stroke="currentColor" stroke-width="1.75" stroke-linecap="round" stroke-linejoin="round" id="i-inspect" viewBox="0 0 24 24"><path d="M6 3h9l4 4v14H6zM14 3v5h5"/><circle cx="11" cy="14" r="3"/><path d="m13.2 16.2 2.3 2.3"/></symbol>
  <symbol fill="none" stroke="currentColor" stroke-width="1.75" stroke-linecap="round" stroke-linejoin="round" id="i-learn" viewBox="0 0 24 24"><path d="M4 5.5C7 4 9.5 4.5 12 6v14c-2.5-1.5-5-2-8-.5zM20 5.5C17 4 14.5 4.5 12 6v14c2.5-1.5 5-2 8-.5z"/></symbol>
  <symbol fill="none" stroke="currentColor" stroke-width="1.75" stroke-linecap="round" stroke-linejoin="round" id="i-pipeline" viewBox="0 0 24 24"><circle cx="5" cy="5" r="2"/><circle cx="19" cy="12" r="2"/><circle cx="5" cy="19" r="2"/><path d="M7 5h4a3 3 0 0 1 3 3v1a3 3 0 0 0 3 3M7 19h4a3 3 0 0 0 3-3v-1a3 3 0 0 1 3-3"/></symbol>
  <symbol fill="none" stroke="currentColor" stroke-width="1.75" stroke-linecap="round" stroke-linejoin="round" id="i-queue" viewBox="0 0 24 24"><path d="M8 6h12M8 12h12M8 18h12"/><circle cx="4" cy="6" r="1"/><circle cx="4" cy="12" r="1"/><circle cx="4" cy="18" r="1"/></symbol>
  <symbol fill="none" stroke="currentColor" stroke-width="1.75" stroke-linecap="round" stroke-linejoin="round" id="i-record" viewBox="0 0 24 24"><path d="M6 3h9l4 4v14H6zM14 3v5h5M9 12h6M9 16h6"/></symbol>
  <symbol fill="none" stroke="currentColor" stroke-width="1.75" stroke-linecap="round" stroke-linejoin="round" id="i-access" viewBox="0 0 24 24"><path d="M12 3 20 6v6c0 5-3.2 8-8 9-4.8-1-8-4-8-9V6z"/><path d="m9 12 2 2 4-5"/></symbol>
  <symbol fill="none" stroke="currentColor" stroke-width="1.75" stroke-linecap="round" stroke-linejoin="round" id="i-audit" viewBox="0 0 24 24"><circle cx="12" cy="12" r="8"/><path d="M12 7v5l3 2M4 4l2 2"/></symbol>
  <symbol fill="none" stroke="currentColor" stroke-width="1.75" stroke-linecap="round" stroke-linejoin="round" id="i-search" viewBox="0 0 24 24"><circle cx="10.5" cy="10.5" r="6.5"/><path d="m16 16 5 5"/></symbol>
  <symbol fill="none" stroke="currentColor" stroke-width="1.75" stroke-linecap="round" stroke-linejoin="round" id="i-filter" viewBox="0 0 24 24"><path d="M4 5h16l-6 7v6l-4 2v-8z"/></symbol>
  <symbol fill="none" stroke="currentColor" stroke-width="1.75" stroke-linecap="round" stroke-linejoin="round" id="i-user" viewBox="0 0 24 24"><circle cx="9" cy="8" r="3"/><path d="M3 20c.5-4 2.5-6 6-6s5.5 2 6 6M17 8h4M19 6v4"/></symbol>
  <symbol fill="none" stroke="currentColor" stroke-width="1.75" stroke-linecap="round" stroke-linejoin="round" id="i-calendar" viewBox="0 0 24 24"><rect x="3" y="5" width="18" height="16" rx="1.5"/><path d="M8 3v4M16 3v4M3 10h18"/></symbol>
  <symbol fill="none" stroke="currentColor" stroke-width="1.75" stroke-linecap="round" stroke-linejoin="round" id="i-check" viewBox="0 0 24 24"><path d="m5 12 4 4L19 6"/></symbol>
  <symbol fill="none" stroke="currentColor" stroke-width="1.75" stroke-linecap="round" stroke-linejoin="round" id="i-alert" viewBox="0 0 24 24"><path d="M12 3 22 20H2zM12 9v5M12 17.5v.5"/></symbol>
  <symbol fill="none" stroke="currentColor" stroke-width="1.75" stroke-linecap="round" stroke-linejoin="round" id="i-error" viewBox="0 0 24 24"><circle cx="12" cy="12" r="9"/><path d="m9 9 6 6M15 9l-6 6"/></symbol>
  <symbol fill="none" stroke="currentColor" stroke-width="1.75" stroke-linecap="round" stroke-linejoin="round" id="i-clock" viewBox="0 0 24 24"><circle cx="12" cy="12" r="9"/><path d="M12 7v5l3 2"/></symbol>
  <symbol fill="none" stroke="currentColor" stroke-width="1.75" stroke-linecap="round" stroke-linejoin="round" id="i-play" viewBox="0 0 24 24"><path d="m8 5 11 7-11 7z"/></symbol>
  <symbol fill="none" stroke="currentColor" stroke-width="1.75" stroke-linecap="round" stroke-linejoin="round" id="i-pause" viewBox="0 0 24 24"><path d="M8 5v14M16 5v14"/></symbol>
  <symbol fill="none" stroke="currentColor" stroke-width="1.75" stroke-linecap="round" stroke-linejoin="round" id="i-grid" viewBox="0 0 24 24"><path d="M4 4h16v16H4zM4 10h16M4 16h16M10 4v16M16 4v16"/></symbol>
  <symbol fill="none" stroke="currentColor" stroke-width="1.75" stroke-linecap="round" stroke-linejoin="round" id="i-sun" viewBox="0 0 24 24"><circle cx="12" cy="12" r="4"/><path d="M12 2v2M12 20v2M2 12h2M20 12h2M5 5l1.5 1.5M17.5 17.5 19 19M19 5l-1.5 1.5M6.5 17.5 5 19"/></symbol>
  <symbol fill="none" stroke="currentColor" stroke-width="1.75" stroke-linecap="round" stroke-linejoin="round" id="i-moon" viewBox="0 0 24 24"><path d="M20 15.5A8 8 0 0 1 8.5 4 8.5 8.5 0 1 0 20 15.5z"/></symbol>
  <symbol fill="none" stroke="currentColor" stroke-width="1.75" stroke-linecap="round" stroke-linejoin="round" id="i-desktop" viewBox="0 0 24 24"><rect x="3" y="4" width="18" height="13" rx="1.5"/><path d="M8 21h8M12 17v4"/></symbol>
  <symbol fill="none" stroke="currentColor" stroke-width="1.75" stroke-linecap="round" stroke-linejoin="round" id="i-tablet" viewBox="0 0 24 24"><rect x="5" y="2" width="14" height="20" rx="2"/><path d="M11 18h2"/></symbol>
  <symbol fill="none" stroke="currentColor" stroke-width="1.75" stroke-linecap="round" stroke-linejoin="round" id="i-mobile" viewBox="0 0 24 24"><rect x="7" y="2" width="10" height="20" rx="2"/><path d="M11 18h2"/></symbol>
  <symbol fill="none" stroke="currentColor" stroke-width="1.75" stroke-linecap="round" stroke-linejoin="round" id="i-chevron-down" viewBox="0 0 24 24"><path d="m6 9 6 6 6-6"/></symbol>
  <symbol fill="none" stroke="currentColor" stroke-width="1.75" stroke-linecap="round" stroke-linejoin="round" id="i-chevron-right" viewBox="0 0 24 24"><path d="m9 6 6 6-6 6"/></symbol>
  <symbol fill="none" stroke="currentColor" stroke-width="1.75" stroke-linecap="round" stroke-linejoin="round" id="i-arrow-left" viewBox="0 0 24 24"><path d="M20 12H4M10 6l-6 6 6 6"/></symbol>
  <symbol fill="none" stroke="currentColor" stroke-width="1.75" stroke-linecap="round" stroke-linejoin="round" id="i-arrow-right" viewBox="0 0 24 24"><path d="M4 12h16M14 6l6 6-6 6"/></symbol>
  <symbol fill="none" stroke="currentColor" stroke-width="1.75" stroke-linecap="round" stroke-linejoin="round" id="i-save" viewBox="0 0 24 24"><path d="M5 3h12l2 2v16H5zM8 3v6h8V3M8 21v-7h8v7"/></symbol>
  <symbol fill="none" stroke="currentColor" stroke-width="1.75" stroke-linecap="round" stroke-linejoin="round" id="i-refresh" viewBox="0 0 24 24"><path d="M20 7v5h-5M4 17v-5h5M6.5 8a7 7 0 0 1 12 1l1.5 3M17.5 16a7 7 0 0 1-12-1L4 12"/></symbol>
  <symbol fill="none" stroke="currentColor" stroke-width="1.75" stroke-linecap="round" stroke-linejoin="round" id="i-log" viewBox="0 0 24 24"><path d="M5 3h14v18H5zM8 8h8M8 12h8M8 16h5"/></symbol>
  <symbol fill="none" stroke="currentColor" stroke-width="1.75" stroke-linecap="round" stroke-linejoin="round" id="i-open" viewBox="0 0 24 24"><path d="M10 5H5v14h14v-5M13 3h8v8M21 3l-10 10"/></symbol>
  <symbol fill="none" stroke="currentColor" stroke-width="1.75" stroke-linecap="round" stroke-linejoin="round" id="i-command" viewBox="0 0 24 24"><path d="M9 6v12M15 6v12M6 9h12M6 15h12"/><circle cx="6" cy="6" r="3"/><circle cx="18" cy="6" r="3"/><circle cx="6" cy="18" r="3"/><circle cx="18" cy="18" r="3"/></symbol>
  <symbol fill="none" stroke="currentColor" stroke-width="1.75" stroke-linecap="round" stroke-linejoin="round" id="i-copy" viewBox="0 0 24 24"><rect x="8" y="8" width="12" height="12" rx="1.5"/><path d="M16 8V4H4v12h4"/></symbol>
  <symbol fill="none" stroke="currentColor" stroke-width="1.75" stroke-linecap="round" stroke-linejoin="round" id="i-trash" viewBox="0 0 24 24"><path d="M4 7h16M9 7V4h6v3M7 7l1 14h8l1-14M10 11v6M14 11v6"/></symbol>
  <symbol fill="none" stroke="currentColor" stroke-width="1.75" stroke-linecap="round" stroke-linejoin="round" id="i-panel" viewBox="0 0 24 24"><path d="M3 4h18v16H3zM15 4v16M6 8h6M6 12h6"/></symbol>
  <symbol fill="none" stroke="currentColor" stroke-width="1.75" stroke-linecap="round" stroke-linejoin="round" id="i-info" viewBox="0 0 24 24"><circle cx="12" cy="12" r="9"/><path d="M12 11v6M12 7.5v.5"/></symbol>
  <symbol fill="none" stroke="currentColor" stroke-width="1.75" stroke-linecap="round" stroke-linejoin="round" id="i-menu" viewBox="0 0 24 24"><path d="M4 6h16M4 12h16M4 18h16"/></symbol>
  <symbol fill="none" stroke="currentColor" stroke-width="1.75" stroke-linecap="round" stroke-linejoin="round" id="i-language" viewBox="0 0 24 24"><circle cx="12" cy="12" r="9"/><path d="M3 12h18M12 3a15 15 0 0 1 0 18M12 3a15 15 0 0 0 0 18"/></symbol>
</svg>
